<?xml version="1.0" encoding="UTF-8" standalone="no"?>
<!-- Created with Inkscape (http://www.inkscape.org/) -->

<svg
   width="224.99998mm"
   height="29.999998mm"
   viewBox="0 0 224.99998 29.999998"
   version="1.1"
   id="svg1"
   xmlns="http://www.w3.org/2000/svg"
   xmlns:svg="http://www.w3.org/2000/svg">
  <defs
     id="defs1" />
  <g
     id="layer1">
    <path
       d="M 5.8695055,2.904814 4.301055,7.438714 H 3.4311047 l -1.56845,-4.5339 H 2.694505 l 0.9143997,2.77495 q 0.04445,0.1143 0.0889,0.29845 0.0508,0.1778 0.09525,0.3683 0.0508,0.18415 0.0762,0.3302 0.01905,-0.14605 0.0635,-0.3302 0.0508,-0.1905 0.1016,-0.3683 0.0508,-0.18415 0.0889,-0.29845 l 0.9144008,-2.77495 z m 3.4734499,2.8067 q 0,0.4318 -0.1143,0.762 -0.1143,0.3302 -0.3302,0.5588 -0.2159,0.2286 -0.5207,0.34925 -0.3048,0.12065 -0.6857999,0.12065 -0.3556,0 -0.65405,-0.12065 -0.29845,-0.12065 -0.51435,-0.34925 -0.2159,-0.2286 -0.3429,-0.5588 -0.12065,-0.3302 -0.12065,-0.762 0,-0.5715 0.19685,-0.9652 0.2032,-0.40005 0.5715,-0.60325 0.3683,-0.20955 0.88265,-0.20955 0.4825999,0 0.8445499,0.20955 0.3683,0.2032 0.57785,0.60325 0.20955,0.3937 0.20955,0.9652 z m -2.4574499,0 q 0,0.36195 0.08255,0.6223 0.0889,0.26035 0.2667,0.40005 0.18415,0.1397 0.4699,0.1397 0.2857499,0 0.4635499,-0.1397 0.18415,-0.1397 0.2667,-0.40005 0.08255,-0.26035 0.08255,-0.6223 0,-0.3683 -0.0889,-0.6223 -0.08255,-0.254 -0.26035,-0.38735 -0.1778,-0.1397 -0.4698999,-0.1397 -0.42545,0 -0.6223,0.3048 -0.1905,0.29845 -0.1905,0.84455 z m 4.6228025,1.14935 q 0.1524,0 0.2921,-0.0254 0.1397,-0.03175 0.26035,-0.06985 v 0.5969 q -0.127,0.05715 -0.3302,0.09525 -0.2032,0.04445 -0.42545,0.04445 -0.2921,0 -0.5334,-0.09525 -0.23495,-0.1016 -0.381,-0.3429 -0.1397,-0.2413 -0.1397,-0.6731 v -1.7907 H 9.7874581 v -0.34925 l 0.5079999,-0.2794 0.254,-0.73025 h 0.50165 v 0.75565 h 0.9779 v 0.60325 h -0.9779 v 1.78435 q 0,0.2413 0.127,0.36195 0.127,0.1143 0.3302,0.1143 z m 3.016253,-2.92735 q 0.09525,0 0.2032,0.0127 0.1143,0.00635 0.18415,0.0254 l -0.08255,0.7493 q -0.0762,-0.0127 -0.1778,-0.0254 -0.09525,-0.0127 -0.20955,-0.0127 -0.1651,0 -0.32385,0.05715 -0.15875,0.05715 -0.2921,0.1778 -0.13335,0.12065 -0.20955,0.3048 -0.0762,0.1778 -0.0762,0.43815 v 1.778 h -0.80645 v -3.4417 h 0.6223 l 0.1143,0.5969 h 0.0381 q 0.1016,-0.18415 0.254,-0.3302 0.1524,-0.1524 0.3429,-0.2413 0.19685,-0.0889 0.4191,-0.0889 z m 2.254247,0 q 0.46355,0 0.8001,0.18415 0.33655,0.18415 0.51435,0.5334 0.18415,0.34925 0.18415,0.84455 v 0.41275 h -2.26695 q 0.0127,0.46355 0.26035,0.71755 0.24765,0.254 0.70485,0.254 0.32385,0 0.5842,-0.0635 0.26035,-0.0635 0.5334,-0.18415 v 0.635 q -0.254,0.12065 -0.52705,0.1778 -0.27305,0.05715 -0.66675,0.05715 -0.50165,0 -0.889,-0.1905 -0.38735,-0.19685 -0.6096,-0.59055 -0.2159,-0.3937 -0.2159,-0.9779 0,-0.59055 0.19685,-0.9906 0.2032,-0.4064 0.5588,-0.6096 0.36195,-0.20955 0.8382,-0.20955 z m 0.0127,0.5969 q -0.3302,0 -0.52705,0.20955 -0.19685,0.20955 -0.23495,0.60325 h 1.46685 q 0,-0.2413 -0.0762,-0.4191 -0.0762,-0.18415 -0.23495,-0.28575 -0.15875,-0.10795 -0.3937,-0.10795 z m 5.384795,-0.5969 q 0.64135,0 0.9652,0.29845 0.3302,0.2921 0.3302,0.89535 v 2.3114 h -0.5715 l -0.1524,-0.47625 h -0.0254 q -0.14605,0.18415 -0.3048,0.31115 -0.1524,0.12065 -0.3556,0.17145 -0.2032,0.05715 -0.48895,0.05715 -0.3048,0 -0.55245,-0.1143 -0.2413,-0.1143 -0.381,-0.34925 -0.1397,-0.23495 -0.1397,-0.59055 0,-0.5334 0.3937,-0.80645 0.40005,-0.2794 1.20015,-0.3048 l 0.57785,-0.01905 v -0.14605 q 0,-0.3556 -0.15875,-0.4953 -0.1524,-0.1397 -0.43815,-0.1397 -0.24765,0 -0.4953,0.08255 -0.2413,0.0762 -0.4699,0.1778 l -0.2413,-0.56515 q 0.254,-0.127 0.5842,-0.20955 0.33655,-0.0889 0.7239,-0.0889 z m 0.0762,1.89865 q -0.5207,0.0127 -0.7239,0.1651 -0.19685,0.1524 -0.19685,0.42545 0,0.2413 0.1397,0.36195 0.14605,0.1143 0.37465,0.1143 0.34925,0 0.5842,-0.19685 0.2413,-0.2032 0.2413,-0.5969 v -0.2921 z m 3.644894,1.67005 q -0.4826,0 -0.8509,-0.18415 -0.3683,-0.1905 -0.57785,-0.57785 -0.2032,-0.3937 -0.2032,-1.0033 0,-0.635 0.22225,-1.03505 0.22225,-0.40005 0.60325,-0.5842 0.381,-0.18415 0.8636,-0.18415 0.28575,0 0.5461,0.0635 0.26035,0.05715 0.45085,0.1524 l -0.24765,0.6223 q -0.17145,-0.06985 -0.37465,-0.12065 -0.19685,-0.05715 -0.381,-0.05715 -0.2794,0 -0.4699,0.127 -0.1905,0.127 -0.2921,0.381 -0.09525,0.24765 -0.09525,0.62865 0,0.3683 0.09525,0.61595 0.1016,0.2413 0.28575,0.3683 0.1905,0.12065 0.4572,0.12065 0.27305,0 0.50165,-0.0635 0.23495,-0.06985 0.43815,-0.1778 v 0.67945 q -0.1905,0.10795 -0.42545,0.1651 -0.2286,0.0635 -0.5461,0.0635 z m 3.187706,0 q -0.4826,0 -0.8509,-0.18415 -0.3683,-0.1905 -0.57785,-0.57785 -0.2032,-0.3937 -0.2032,-1.0033 0,-0.635 0.22225,-1.03505 0.22225,-0.40005 0.60325,-0.5842 0.381,-0.18415 0.8636,-0.18415 0.28575,0 0.5461,0.0635 0.26035,0.05715 0.45085,0.1524 l -0.24765,0.6223 q -0.17145,-0.06985 -0.37465,-0.12065 -0.19685,-0.05715 -0.381,-0.05715 -0.2794,0 -0.4699,0.127 -0.1905,0.127 -0.2921,0.381 -0.09525,0.24765 -0.09525,0.62865 0,0.3683 0.09525,0.61595 0.1016,0.2413 0.28575,0.3683 0.1905,0.12065 0.4572,0.12065 0.27305,0 0.50165,-0.0635 0.23495,-0.06985 0.43815,-0.1778 v 0.67945 q -0.1905,0.10795 -0.42545,0.1651 -0.2286,0.0635 -0.5461,0.0635 z m 3.149605,-3.5687 q 0.46355,0 0.8001,0.18415 0.33655,0.18415 0.51435,0.5334 0.18415,0.34925 0.18415,0.84455 v 0.41275 h -2.26695 q 0.0127,0.46355 0.26035,0.71755 0.24765,0.254 0.70485,0.254 0.32385,0 0.5842,-0.0635 0.26035,-0.0635 0.5334,-0.18415 v 0.635 q -0.254,0.12065 -0.52705,0.1778 -0.27305,0.05715 -0.66675,0.05715 -0.50165,0 -0.889,-0.1905 -0.38735,-0.19685 -0.6096,-0.59055 -0.2159,-0.3937 -0.2159,-0.9779 0,-0.59055 0.19685,-0.9906 0.2032,-0.4064 0.5588,-0.6096 0.36195,-0.20955 0.8382,-0.20955 z m 0.0127,0.5969 q -0.3302,0 -0.52705,0.20955 -0.19685,0.20955 -0.23495,0.60325 h 1.46685 q 0,-0.2413 -0.0762,-0.4191 -0.0762,-0.18415 -0.23495,-0.28575 -0.15875,-0.10795 -0.3937,-0.10795 z m -0.05715,-1.9558 q 0.08255,0.1397 0.2032,0.31115 0.12065,0.17145 0.254,0.33655 0.13335,0.1651 0.2286,0.28575 v 0.08255 h -0.53975 q -0.1143,-0.08255 -0.2667,-0.2032 -0.1524,-0.127 -0.3048,-0.26035 -0.1524,-0.1397 -0.28575,-0.2667 -0.13335,-0.13335 -0.20955,-0.22225 v -0.0635 z m 4.705342,3.8735 q 0,0.3302 -0.15875,0.56515 -0.15875,0.23495 -0.4699,0.36195 -0.31115,0.127 -0.7747,0.127 -0.3683,0 -0.64135,-0.0508 -0.2667,-0.0508 -0.50165,-0.15875 v -0.6858 q 0.24765,0.12065 0.5588,0.2032 0.31115,0.0762 0.5715,0.0762 0.3429,0 0.4953,-0.1016 0.1524,-0.1016 0.1524,-0.27305 0,-0.10795 -0.06985,-0.1905 -0.0635,-0.0889 -0.2413,-0.1778 -0.17145,-0.0889 -0.48895,-0.2159 -0.3175,-0.127 -0.53975,-0.26035 -0.2159,-0.13335 -0.3302,-0.3175 -0.1143,-0.18415 -0.1143,-0.4699 0,-0.4572 0.3683,-0.6985 0.3683,-0.24765 0.97155,-0.24765 0.32385,0 0.60325,0.06985 0.28575,0.0635 0.5588,0.18415 l -0.2413,0.5715 q -0.23495,-0.1016 -0.4826,-0.1651 -0.24765,-0.06985 -0.46355,-0.06985 -0.26035,0 -0.4064,0.08255 -0.1397,0.08255 -0.1397,0.2286 0,0.10795 0.06985,0.1905 0.0762,0.08255 0.254,0.1651 0.1778,0.08255 0.48895,0.2032 0.31115,0.12065 0.52705,0.254 0.22225,0.13335 0.3302,0.32385 0.1143,0.18415 0.1143,0.47625 z m 3.867152,-2.5146 q 0.64135,0 0.9652,0.29845 0.3302,0.2921 0.3302,0.89535 v 2.3114 h -0.5715 l -0.1524,-0.47625 h -0.0254 q -0.14605,0.18415 -0.3048,0.31115 -0.1524,0.12065 -0.3556,0.17145 -0.2032,0.05715 -0.48895,0.05715 -0.3048,0 -0.55245,-0.1143 -0.2413,-0.1143 -0.381,-0.34925 -0.1397,-0.23495 -0.1397,-0.59055 0,-0.5334 0.3937,-0.80645 0.40005,-0.2794 1.20015,-0.3048 l 0.57785,-0.01905 v -0.14605 q 0,-0.3556 -0.15875,-0.4953 -0.1524,-0.1397 -0.43815,-0.1397 -0.24765,0 -0.4953,0.08255 -0.2413,0.0762 -0.4699,0.1778 l -0.2413,-0.56515 q 0.254,-0.127 0.5842,-0.20955 0.33655,-0.0889 0.7239,-0.0889 z m 0.0762,1.89865 q -0.5207,0.0127 -0.7239,0.1651 -0.19685,0.1524 -0.19685,0.42545 0,0.2413 0.1397,0.36195 0.14605,0.1143 0.37465,0.1143 0.34925,0 0.5842,-0.19685 0.2413,-0.2032 0.2413,-0.5969 v -0.2921 z m -0.15875,-3.25755 q 0.08255,0.1397 0.2032,0.31115 0.12065,0.17145 0.254,0.33655 0.13335,0.1651 0.2286,0.28575 v 0.08255 h -0.53975 q -0.1143,-0.08255 -0.2667,-0.2032 -0.1524,-0.127 -0.3048,-0.26035 -0.1524,-0.1397 -0.28575,-0.2667 -0.13335,-0.13335 -0.20955,-0.22225 v -0.0635 z m 7.061195,1.4224 v 3.4417 h -0.635 l -0.1016,-0.4445 h -0.04445 q -0.10795,0.1778 -0.2794,0.2921 -0.17145,0.1143 -0.37465,0.1651 -0.19685,0.0508 -0.4191,0.0508 -0.381,0 -0.6604,-0.13335 -0.27305,-0.13335 -0.42545,-0.4064 -0.1524,-0.2794 -0.1524,-0.71755 v -2.2479 h 0.81915 v 2.0828 q 0,0.381 0.14605,0.57785 0.1524,0.1905 0.47625,0.1905 0.32385,0 0.508,-0.13335 0.18415,-0.13335 0.26035,-0.3937 0.0762,-0.2667 0.0762,-0.6477 v -1.6764 z m 2.838455,-0.0635 q 0.5842,0 0.90805,0.29845 0.32385,0.29845 0.32385,0.9652 v 2.24155 h -0.8001 v -2.07645 q 0,-0.3937 -0.1524,-0.5842 -0.1524,-0.19685 -0.4826,-0.19685 -0.4826,0 -0.6604,0.3048 -0.1778,0.3048 -0.1778,0.8763 v 1.6764 h -0.80645 v -3.4417 h 0.6223 l 0.12065,0.46355 h 0.03175 q 0.1143,-0.1778 0.2794,-0.2921 0.1651,-0.12065 0.36195,-0.1778 0.2032,-0.05715 0.4318,-0.05715 z m 5.308603,3.5687 q -0.4826,0 -0.8509,-0.18415 -0.3683,-0.1905 -0.57785,-0.57785 -0.2032,-0.3937 -0.2032,-1.0033 0,-0.635 0.22225,-1.03505 0.22225,-0.40005 0.60325,-0.5842 0.381,-0.18415 0.8636,-0.18415 0.28575,0 0.5461,0.0635 0.26035,0.05715 0.45085,0.1524 l -0.24765,0.6223 q -0.17145,-0.06985 -0.37465,-0.12065 -0.19685,-0.05715 -0.381,-0.05715 -0.2794,0 -0.4699,0.127 -0.1905,0.127 -0.2921,0.381 -0.09525,0.24765 -0.09525,0.62865 0,0.3683 0.09525,0.61595 0.1016,0.2413 0.28575,0.3683 0.1905,0.12065 0.4572,0.12065 0.27305,0 0.50165,-0.0635 0.23495,-0.06985 0.43815,-0.1778 v 0.67945 q -0.1905,0.10795 -0.42545,0.1651 -0.2286,0.0635 -0.5461,0.0635 z m 4.838705,-1.7907 q 0,0.4318 -0.1143,0.762 -0.1143,0.3302 -0.3302,0.5588 -0.2159,0.2286 -0.5207,0.34925 -0.3048,0.12065 -0.6858,0.12065 -0.3556,0 -0.65405,-0.12065 -0.29845,-0.12065 -0.51435,-0.34925 -0.2159,-0.2286 -0.3429,-0.5588 -0.12065,-0.3302 -0.12065,-0.762 0,-0.5715 0.19685,-0.9652 0.2032,-0.40005 0.5715,-0.60325 0.3683,-0.20955 0.88265,-0.20955 0.4826,0 0.84455,0.20955 0.3683,0.2032 0.57785,0.60325 0.20955,0.3937 0.20955,0.9652 z m -2.45745,0 q 0,0.36195 0.08255,0.6223 0.0889,0.26035 0.2667,0.40005 0.18415,0.1397 0.4699,0.1397 0.28575,0 0.46355,-0.1397 0.18415,-0.1397 0.2667,-0.40005 0.08255,-0.26035 0.08255,-0.6223 0,-0.3683 -0.0889,-0.6223 -0.08255,-0.254 -0.26035,-0.38735 -0.1778,-0.1397 -0.4699,-0.1397 -0.42545,0 -0.6223,0.3048 -0.1905,0.29845 -0.1905,0.84455 z m 3.95605,1.7272 -1.3081,-3.4417 h 0.8509 l 0.6731,2.032 q 0.0381,0.09525 0.0762,0.22225 0.0381,0.127 0.06985,0.254 0.0381,0.127 0.04445,0.2159 h 0.0254 q 0.0127,-0.0889 0.04445,-0.2159 0.0381,-0.127 0.0762,-0.254 0.04445,-0.127 0.08255,-0.22225 l 0.67945,-2.032 h 0.8509 l -1.3081,3.4417 z m 5.765808,-1.7272 q 0,0.4318 -0.1143,0.762 -0.1143,0.3302 -0.3302,0.5588 -0.2159,0.2286 -0.5207,0.34925 -0.3048,0.12065 -0.6858,0.12065 -0.3556,0 -0.65405,-0.12065 -0.29845,-0.12065 -0.51435,-0.34925 -0.2159,-0.2286 -0.3429,-0.5588 -0.12065,-0.3302 -0.12065,-0.762 0,-0.5715 0.19685,-0.9652 0.2032,-0.40005 0.5715,-0.60325 0.3683,-0.20955 0.88265,-0.20955 0.4826,0 0.84455,0.20955 0.3683,0.2032 0.57785,0.60325 0.20955,0.3937 0.20955,0.9652 z m -2.45745,0 q 0,0.36195 0.08255,0.6223 0.0889,0.26035 0.2667,0.40005 0.18415,0.1397 0.4699,0.1397 0.28575,0 0.46355,-0.1397 0.18415,-0.1397 0.2667,-0.40005 0.08255,-0.26035 0.08255,-0.6223 0,-0.3683 -0.0889,-0.6223 -0.08255,-0.254 -0.26035,-0.38735 -0.1778,-0.1397 -0.4699,-0.1397 -0.42545,0 -0.6223,0.3048 -0.1905,0.29845 -0.1905,0.84455 z m 4.076703,-1.7145 v 3.4417 h -0.80645 v -3.4417 z m -0.40005,-1.3335 q 0.18415,0 0.3175,0.09525 0.13335,0.09525 0.13335,0.3302 0,0.2286 -0.13335,0.3302 -0.13335,0.09525 -0.3175,0.09525 -0.18415,0 -0.3175,-0.09525 -0.127,-0.1016 -0.127,-0.3302 0,-0.23495 0.127,-0.3302 0.13335,-0.09525 0.3175,-0.09525 z m 2.749555,4.19735 q 0.1524,0 0.2921,-0.0254 0.1397,-0.03175 0.26035,-0.06985 v 0.5969 q -0.127,0.05715 -0.3302,0.09525 -0.2032,0.04445 -0.42545,0.04445 -0.2921,0 -0.5334,-0.09525 -0.23495,-0.1016 -0.381,-0.3429 -0.1397,-0.2413 -0.1397,-0.6731 v -1.7907 h -0.46355 v -0.34925 l 0.508,-0.2794 0.254,-0.73025 h 0.50165 v 0.75565 h 0.9779 v 0.60325 h -0.9779 v 1.78435 q 0,0.2413 0.127,0.36195 0.127,0.1143 0.3302,0.1143 z m 4.286247,-2.86385 v 3.4417 h -0.635 l -0.1016,-0.4445 h -0.04445 q -0.10795,0.1778 -0.2794,0.2921 -0.17145,0.1143 -0.37465,0.1651 -0.19685,0.0508 -0.4191,0.0508 -0.381,0 -0.6604,-0.13335 -0.27305,-0.13335 -0.42545,-0.4064 -0.1524,-0.2794 -0.1524,-0.71755 v -2.2479 h 0.81915 v 2.0828 q 0,0.381 0.14605,0.57785 0.1524,0.1905 0.47625,0.1905 0.32385,0 0.508,-0.13335 0.18415,-0.13335 0.26035,-0.3937 0.0762,-0.2667 0.0762,-0.6477 v -1.6764 z m 2.781303,-0.0635 q 0.09525,0 0.2032,0.0127 0.1143,0.00635 0.18415,0.0254 l -0.08255,0.7493 q -0.0762,-0.0127 -0.1778,-0.0254 -0.09525,-0.0127 -0.20955,-0.0127 -0.1651,0 -0.32385,0.05715 -0.15875,0.05715 -0.2921,0.1778 -0.13335,0.12065 -0.20955,0.3048 -0.0762,0.1778 -0.0762,0.43815 v 1.778 h -0.80645 v -3.4417 h 0.6223 l 0.1143,0.5969 h 0.0381 q 0.1016,-0.18415 0.254,-0.3302 0.1524,-0.1524 0.3429,-0.2413 0.19685,-0.0889 0.4191,-0.0889 z m 2.286002,0 q 0.64135,0 0.9652,0.29845 0.3302,0.2921 0.3302,0.89535 v 2.3114 h -0.5715 l -0.1524,-0.47625 h -0.0254 q -0.14605,0.18415 -0.3048,0.31115 -0.1524,0.12065 -0.3556,0.17145 -0.2032,0.05715 -0.48895,0.05715 -0.3048,0 -0.55245,-0.1143 -0.2413,-0.1143 -0.381,-0.34925 -0.1397,-0.23495 -0.1397,-0.59055 0,-0.5334 0.3937,-0.80645 0.40005,-0.2794 1.20015,-0.3048 l 0.57785,-0.01905 v -0.14605 q 0,-0.3556 -0.15875,-0.4953 -0.1524,-0.1397 -0.43815,-0.1397 -0.24765,0 -0.4953,0.08255 -0.2413,0.0762 -0.4699,0.1778 l -0.2413,-0.56515 q 0.254,-0.127 0.5842,-0.20955 0.33655,-0.0889 0.7239,-0.0889 z m 0.0762,1.89865 q -0.5207,0.0127 -0.7239,0.1651 -0.19685,0.1524 -0.19685,0.42545 0,0.2413 0.1397,0.36195 0.14605,0.1143 0.37465,0.1143 0.34925,0 0.5842,-0.19685 0.2413,-0.2032 0.2413,-0.5969 v -0.2921 z m 3.365495,-1.89865 q 0.34925,0 0.5969,0.13335 0.254,0.13335 0.42545,0.37465 h 0.03175 l 0.08255,-0.4445 h 0.6731 v 3.4798 q 0,0.48895 -0.18415,0.81915 -0.1778,0.3302 -0.5461,0.4953 -0.36195,0.17145 -0.9271,0.17145 -0.38735,0 -0.70485,-0.0508 -0.31115,-0.0508 -0.57785,-0.15875 v -0.70485 q 0.27305,0.127 0.57785,0.19685 0.31115,0.06985 0.6985,0.06985 0.41275,0 0.635,-0.20955 0.22225,-0.20955 0.22225,-0.57785 v -0.1143 q 0,-0.0762 0.0064,-0.20955 0.0127,-0.13335 0.01905,-0.20955 h -0.0254 q -0.15875,0.2413 -0.4064,0.37465 -0.24765,0.13335 -0.60325,0.13335 -0.61595,0 -0.98425,-0.46355 -0.36195,-0.46355 -0.36195,-1.31445 0,-0.84455 0.36195,-1.31445 0.3683,-0.47625 0.9906,-0.47625 z m 0.22225,0.6477 q -0.2413,0 -0.41275,0.13335 -0.1651,0.13335 -0.254,0.38735 -0.08255,0.254 -0.08255,0.635 0,0.5588 0.1905,0.84455 0.19685,0.2794 0.5715,0.2794 0.2159,0 0.3683,-0.05715 0.1524,-0.0635 0.24765,-0.18415 0.1016,-0.127 0.14605,-0.3175 0.0508,-0.1905 0.0508,-0.45085 v -0.13335 q 0,-0.3937 -0.08255,-0.64135 -0.08255,-0.254 -0.2667,-0.37465 -0.18415,-0.12065 -0.47625,-0.12065 z m 3.994145,-0.6477 q 0.46355,0 0.8001,0.18415 0.33655,0.18415 0.51435,0.5334 0.18415,0.34925 0.18415,0.84455 v 0.41275 h -2.26695 q 0.0127,0.46355 0.26035,0.71755 0.24765,0.254 0.70485,0.254 0.32385,0 0.5842,-0.0635 0.26035,-0.0635 0.5334,-0.18415 v 0.635 q -0.254,0.12065 -0.52705,0.1778 -0.27305,0.05715 -0.66675,0.05715 -0.50165,0 -0.889,-0.1905 -0.38735,-0.19685 -0.6096,-0.59055 -0.2159,-0.3937 -0.2159,-0.9779 0,-0.59055 0.19685,-0.9906 0.2032,-0.4064 0.5588,-0.6096 0.36195,-0.20955 0.8382,-0.20955 z m 0.0127,0.5969 q -0.3302,0 -0.52705,0.20955 -0.19685,0.20955 -0.23495,0.60325 h 1.46685 q 0,-0.2413 -0.0762,-0.4191 -0.0762,-0.18415 -0.23495,-0.28575 -0.15875,-0.10795 -0.3937,-0.10795 z m 5.753092,-0.5969 q 0.61595,0 0.9779,0.45085 0.36195,0.4445 0.36195,1.32715 0,0.5842 -0.17145,0.98425 -0.17145,0.40005 -0.47625,0.60325 -0.3048,0.2032 -0.7112,0.2032 -0.254,0 -0.4445,-0.0635 -0.1905,-0.06985 -0.32385,-0.17145 -0.127,-0.10795 -0.22225,-0.22225 h -0.0381 q 0.0127,0.10795 0.0254,0.2667 0.0127,0.1524 0.0127,0.29845 v 1.35255 h -0.80645 v -4.9657 h 0.65405 l 0.1143,0.4572 h 0.0381 q 0.09525,-0.14605 0.2286,-0.26035 0.1397,-0.12065 0.3302,-0.1905 0.1905,-0.06985 0.45085,-0.06985 z m -0.23495,0.6477 q -0.2794,0 -0.45085,0.1143 -0.1651,0.1143 -0.2413,0.3429 -0.0762,0.22225 -0.08255,0.56515 v 0.1016 q 0,0.3683 0.06985,0.6223 0.06985,0.254 0.2413,0.38735 0.1778,0.127 0.47625,0.127 0.24765,0 0.41275,-0.1397 0.1651,-0.1397 0.2413,-0.3937 0.08255,-0.254 0.08255,-0.6096 0,-0.53975 -0.18415,-0.8255 -0.18415,-0.2921 -0.56515,-0.2921 z m 3.200397,2.8575 h -0.80645 v -4.826 h 0.80645 z m 4.051303,-3.4417 v 3.4417 h -0.635 l -0.1016,-0.4445 h -0.0444 q -0.10795,0.1778 -0.2794,0.2921 -0.17145,0.1143 -0.37465,0.1651 -0.19685,0.0508 -0.419098,0.0508 -0.381,0 -0.6604,-0.13335 -0.27305,-0.13335 -0.42545,-0.4064 -0.1524,-0.2794 -0.1524,-0.71755 v -2.2479 h 0.81915 v 2.0828 q 0,0.381 0.14605,0.57785 0.1524,0.1905 0.476248,0.1905 0.32385,0 0.508,-0.13335 0.18415,-0.13335 0.26035,-0.3937 0.0762,-0.2667 0.0762,-0.6477 v -1.6764 z m 3.3528,2.4511 q 0,0.3302 -0.15875,0.56515 -0.15875,0.23495 -0.4699,0.36195 -0.31115,0.127 -0.7747,0.127 -0.3683,0 -0.64135,-0.0508 -0.2667,-0.0508 -0.50165,-0.15875 v -0.6858 q 0.24765,0.12065 0.5588,0.2032 0.31115,0.0762 0.5715,0.0762 0.3429,0 0.4953,-0.1016 0.1524,-0.1016 0.1524,-0.27305 0,-0.10795 -0.0699,-0.1905 -0.0635,-0.0889 -0.2413,-0.1778 -0.17145,-0.0889 -0.48895,-0.2159 -0.3175,-0.127 -0.53975,-0.26035 -0.2159,-0.13335 -0.3302,-0.3175 -0.1143,-0.18415 -0.1143,-0.4699 0,-0.4572 0.3683,-0.6985 0.3683,-0.24765 0.97155,-0.24765 0.32385,0 0.60325,0.06985 0.28575,0.0635 0.5588,0.18415 l -0.2413,0.5715 q -0.23495,-0.1016 -0.4826,-0.1651 -0.24765,-0.06985 -0.46355,-0.06985 -0.26035,0 -0.4064,0.08255 -0.1397,0.08255 -0.1397,0.2286 0,0.10795 0.0699,0.1905 0.0762,0.08255 0.254,0.1651 0.1778,0.08255 0.48895,0.2032 0.31115,0.12065 0.52705,0.254 0.22225,0.13335 0.3302,0.32385 0.1143,0.18415 0.1143,0.47625 z m 3.23215,0.9906 -1.3081,-3.4417 h 0.8509 l 0.6731,2.032 q 0.0381,0.09525 0.0762,0.22225 0.0381,0.127 0.0699,0.254 0.0381,0.127 0.0444,0.2159 h 0.0254 q 0.0127,-0.0889 0.0444,-0.2159 0.0381,-0.127 0.0762,-0.254 0.0444,-0.127 0.0825,-0.22225 l 0.67945,-2.032 h 0.8509 l -1.3081,3.4417 z m 4.07672,-3.5052 q 0.46355,0 0.8001,0.18415 0.33655,0.18415 0.51435,0.5334 0.18415,0.34925 0.18415,0.84455 v 0.41275 h -2.26695 q 0.0127,0.46355 0.26035,0.71755 0.24765,0.254 0.70485,0.254 0.32385,0 0.5842,-0.0635 0.26035,-0.0635 0.5334,-0.18415 v 0.635 q -0.254,0.12065 -0.52705,0.1778 -0.27305,0.05715 -0.66675,0.05715 -0.50165,0 -0.889,-0.1905 -0.38735,-0.19685 -0.6096,-0.59055 -0.2159,-0.3937 -0.2159,-0.9779 0,-0.59055 0.19685,-0.9906 0.2032,-0.4064 0.5588,-0.6096 0.36195,-0.20955 0.8382,-0.20955 z m 0.0127,0.5969 q -0.3302,0 -0.52705,0.20955 -0.19685,0.20955 -0.23495,0.60325 h 1.46685 q 0,-0.2413 -0.0762,-0.4191 -0.0762,-0.18415 -0.23495,-0.28575 -0.15875,-0.10795 -0.3937,-0.10795 z m 4.07669,-0.5969 q 0.0952,0 0.2032,0.0127 0.1143,0.00635 0.18415,0.0254 l -0.0825,0.7493 q -0.0762,-0.0127 -0.1778,-0.0254 -0.0953,-0.0127 -0.20955,-0.0127 -0.1651,0 -0.32385,0.05715 -0.15875,0.05715 -0.2921,0.1778 -0.13335,0.12065 -0.20955,0.3048 -0.0762,0.1778 -0.0762,0.43815 v 1.778 h -0.80645 v -3.4417 h 0.6223 l 0.1143,0.5969 h 0.0381 q 0.1016,-0.18415 0.254,-0.3302 0.1524,-0.1524 0.3429,-0.2413 0.19685,-0.0889 0.4191,-0.0889 z m 2.31775,2.92735 q 0.1524,0 0.2921,-0.0254 0.1397,-0.03175 0.26035,-0.06985 v 0.5969 q -0.127,0.05715 -0.3302,0.09525 -0.2032,0.04445 -0.42545,0.04445 -0.2921,0 -0.5334,-0.09525 -0.23495,-0.1016 -0.381,-0.3429 -0.1397,-0.2413 -0.1397,-0.6731 v -1.7907 h -0.46355 v -0.34925 l 0.508,-0.2794 0.254,-0.73025 h 0.50165 v 0.75565 h 0.9779 v 0.60325 h -0.9779 v 1.78435 q 0,0.2413 0.127,0.36195 0.127,0.1143 0.3302,0.1143 z m 4.2926,-2.92735 q 0.46355,0 0.8001,0.18415 0.33655,0.18415 0.51435,0.5334 0.18415,0.34925 0.18415,0.84455 v 0.41275 h -2.26695 q 0.0127,0.46355 0.26035,0.71755 0.24765,0.254 0.70485,0.254 0.32385,0 0.5842,-0.0635 0.26035,-0.0635 0.5334,-0.18415 v 0.635 q -0.254,0.12065 -0.52705,0.1778 -0.27305,0.05715 -0.66675,0.05715 -0.50165,0 -0.889,-0.1905 -0.38735,-0.19685 -0.6096,-0.59055 -0.2159,-0.3937 -0.2159,-0.9779 0,-0.59055 0.19685,-0.9906 0.2032,-0.4064 0.5588,-0.6096 0.36195,-0.20955 0.8382,-0.20955 z m 0.0127,0.5969 q -0.3302,0 -0.52705,0.20955 -0.19685,0.20955 -0.23495,0.60325 h 1.46685 q 0,-0.2413 -0.0762,-0.4191 -0.0762,-0.18415 -0.23495,-0.28575 -0.15875,-0.10795 -0.3937,-0.10795 z m 3.63854,2.33045 q 0.1524,0 0.2921,-0.0254 0.1397,-0.03175 0.26035,-0.06985 v 0.5969 q -0.127,0.05715 -0.3302,0.09525 -0.2032,0.04445 -0.42545,0.04445 -0.2921,0 -0.5334,-0.09525 -0.23495,-0.1016 -0.381,-0.3429 -0.1397,-0.2413 -0.1397,-0.6731 v -1.7907 h -0.46355 v -0.34925 l 0.508,-0.2794 0.254,-0.73025 h 0.50165 v 0.75565 h 0.9779 v 0.60325 h -0.9779 v 1.78435 q 0,0.2413 0.127,0.36195 0.127,0.1143 0.3302,0.1143 z m 4.32436,-2.92735 q 0.64135,0 0.9652,0.29845 0.3302,0.2921 0.3302,0.89535 v 2.3114 h -0.5715 l -0.1524,-0.47625 h -0.0254 q -0.14605,0.18415 -0.3048,0.31115 -0.1524,0.12065 -0.3556,0.17145 -0.2032,0.05715 -0.48895,0.05715 -0.3048,0 -0.55245,-0.1143 -0.2413,-0.1143 -0.381,-0.34925 -0.1397,-0.23495 -0.1397,-0.59055 0,-0.5334 0.3937,-0.80645 0.40005,-0.2794 1.20015,-0.3048 l 0.57785,-0.01905 v -0.14605 q 0,-0.3556 -0.15875,-0.4953 -0.1524,-0.1397 -0.43815,-0.1397 -0.24765,0 -0.4953,0.08255 -0.2413,0.0762 -0.4699,0.1778 l -0.2413,-0.56515 q 0.254,-0.127 0.5842,-0.20955 0.33655,-0.0889 0.7239,-0.0889 z m 0.0762,1.89865 q -0.5207,0.0127 -0.7239,0.1651 -0.19685,0.1524 -0.19685,0.42545 0,0.2413 0.1397,0.36195 0.14605,0.1143 0.37465,0.1143 0.34925,0 0.5842,-0.19685 0.2413,-0.2032 0.2413,-0.5969 v -0.2921 z m 2.99719,-2.07645 q 0,0.2032 -0.0127,0.38735 -0.006,0.1778 -0.0254,0.3048 h 0.0381 q 0.1397,-0.2159 0.381,-0.36195 0.2413,-0.1524 0.62865,-0.1524 0.5969,0 0.9652,0.45085 0.37465,0.45085 0.37465,1.32715 0,0.59055 -0.17145,0.9906 -0.1651,0.40005 -0.47625,0.60325 -0.3048,0.19685 -0.7112,0.19685 -0.38735,0 -0.6223,-0.1397 -0.2286,-0.1397 -0.3683,-0.3175 h -0.0571 l -0.1397,0.3937 h -0.6096 v -4.826 h 0.80645 z m 0.78105,0.8255 q -0.28575,0 -0.46355,0.12065 -0.17145,0.1143 -0.24765,0.34925 -0.0699,0.23495 -0.0699,0.60325 v 0.08255 q 0,0.53975 0.17145,0.8255 0.17145,0.2794 0.6223,0.2794 0.36195,0 0.5461,-0.2921 0.18415,-0.2921 0.18415,-0.84455 0,-0.5588 -0.18415,-0.8382 -0.1778,-0.28575 -0.5588,-0.28575 z m 5.49275,1.1303 q 0,0.4318 -0.1143,0.762 -0.1143,0.3302 -0.3302,0.5588 -0.2159,0.2286 -0.5207,0.34925 -0.3048,0.12065 -0.6858,0.12065 -0.3556,0 -0.65405,-0.12065 -0.29845,-0.12065 -0.51435,-0.34925 -0.2159,-0.2286 -0.3429,-0.5588 -0.12065,-0.3302 -0.12065,-0.762 0,-0.5715 0.19685,-0.9652 0.2032,-0.40005 0.5715,-0.60325 0.3683,-0.20955 0.88265,-0.20955 0.4826,0 0.84455,0.20955 0.3683,0.2032 0.57785,0.60325 0.20955,0.3937 0.20955,0.9652 z m -2.45745,0 q 0,0.36195 0.0825,0.6223 0.0889,0.26035 0.2667,0.40005 0.18415,0.1397 0.4699,0.1397 0.28575,0 0.46355,-0.1397 0.18415,-0.1397 0.2667,-0.40005 0.0825,-0.26035 0.0825,-0.6223 0,-0.3683 -0.0889,-0.6223 -0.0826,-0.254 -0.26035,-0.38735 -0.1778,-0.1397 -0.4699,-0.1397 -0.42545,0 -0.6223,0.3048 -0.1905,0.29845 -0.1905,0.84455 z m 5.06095,-1.778 q 0.0952,0 0.2032,0.0127 0.1143,0.00635 0.18415,0.0254 l -0.0825,0.7493 q -0.0762,-0.0127 -0.1778,-0.0254 -0.0952,-0.0127 -0.20955,-0.0127 -0.1651,0 -0.32385,0.05715 -0.15875,0.05715 -0.2921,0.1778 -0.13335,0.12065 -0.20955,0.3048 -0.0762,0.1778 -0.0762,0.43815 v 1.778 h -0.80645 v -3.4417 h 0.6223 l 0.1143,0.5969 h 0.0381 q 0.1016,-0.18415 0.254,-0.3302 0.1524,-0.1524 0.3429,-0.2413 0.19685,-0.0889 0.4191,-0.0889 z m 2.00024,3.5687 q -0.5969,0 -0.97155,-0.4445 -0.3683,-0.45085 -0.3683,-1.3335 0,-0.889 0.37465,-1.33985 0.37465,-0.45085 0.98425,-0.45085 0.254,0 0.43815,0.06985 0.1905,0.0635 0.3302,0.1778 0.1397,0.1143 0.23495,0.254 h 0.0318 q -0.0127,-0.1016 -0.0318,-0.28575 -0.0127,-0.1905 -0.0127,-0.33655 v -1.20015 h 0.8128 v 4.826 h -0.62865 l -0.1524,-0.45085 h -0.0318 q -0.0952,0.14605 -0.23495,0.26035 -0.13335,0.1143 -0.3302,0.18415 -0.1905,0.06985 -0.4445,0.06985 z m 0.2413,-0.65405 q 0.45085,0 0.62865,-0.24765 0.18415,-0.254 0.18415,-0.76835 v -0.1016 q 0,-0.55245 -0.1778,-0.84455 -0.17145,-0.29845 -0.64135,-0.29845 -0.36195,0 -0.5588,0.3048 -0.1905,0.29845 -0.1905,0.84455 0,0.5461 0.1905,0.83185 0.19685,0.2794 0.56515,0.2794 z m 4.01955,-2.91465 q 0.64135,0 0.9652,0.29845 0.3302,0.2921 0.3302,0.89535 v 2.3114 h -0.5715 l -0.1524,-0.47625 h -0.0254 q -0.14605,0.18415 -0.3048,0.31115 -0.1524,0.12065 -0.3556,0.17145 -0.2032,0.05715 -0.48895,0.05715 -0.3048,0 -0.55245,-0.1143 -0.2413,-0.1143 -0.381,-0.34925 -0.1397,-0.23495 -0.1397,-0.59055 0,-0.5334 0.3937,-0.80645 0.40005,-0.2794 1.20015,-0.3048 l 0.57785,-0.01905 v -0.14605 q 0,-0.3556 -0.15875,-0.4953 -0.1524,-0.1397 -0.43815,-0.1397 -0.24765,0 -0.4953,0.08255 -0.2413,0.0762 -0.4699,0.1778 l -0.2413,-0.56515 q 0.254,-0.127 0.5842,-0.20955 0.33655,-0.0889 0.7239,-0.0889 z m 0.0762,1.89865 q -0.5207,0.0127 -0.7239,0.1651 -0.19685,0.1524 -0.19685,0.42545 0,0.2413 0.1397,0.36195 0.14605,0.1143 0.37465,0.1143 0.34925,0 0.5842,-0.19685 0.2413,-0.2032 0.2413,-0.5969 v -0.2921 z m 2.99719,-2.07645 q 0,0.2032 -0.0127,0.38735 -0.006,0.1778 -0.0254,0.3048 h 0.0381 q 0.1397,-0.2159 0.381,-0.36195 0.2413,-0.1524 0.62865,-0.1524 0.5969,0 0.9652,0.45085 0.37465,0.45085 0.37465,1.32715 0,0.59055 -0.17145,0.9906 -0.1651,0.40005 -0.47625,0.60325 -0.3048,0.19685 -0.7112,0.19685 -0.38735,0 -0.6223,-0.1397 -0.2286,-0.1397 -0.3683,-0.3175 h -0.0572 l -0.1397,0.3937 h -0.6096 v -4.826 h 0.80645 z m 0.78105,0.8255 q -0.28575,0 -0.46355,0.12065 -0.17145,0.1143 -0.24765,0.34925 -0.0699,0.23495 -0.0699,0.60325 v 0.08255 q 0,0.53975 0.17145,0.8255 0.17145,0.2794 0.6223,0.2794 0.36195,0 0.5461,-0.2921 0.18415,-0.2921 0.18415,-0.84455 0,-0.5588 -0.18415,-0.8382 -0.1778,-0.28575 -0.5588,-0.28575 z m 3.19405,2.8575 h -0.80645 v -4.826 h 0.80645 z m 2.40666,-3.5052 q 0.46355,0 0.8001,0.18415 0.33655,0.18415 0.51435,0.5334 0.18415,0.34925 0.18415,0.84455 v 0.41275 h -2.26695 q 0.0127,0.46355 0.26035,0.71755 0.24765,0.254 0.70485,0.254 0.32385,0 0.5842,-0.0635 0.26035,-0.0635 0.5334,-0.18415 v 0.635 q -0.254,0.12065 -0.52705,0.1778 -0.27305,0.05715 -0.66675,0.05715 -0.50165,0 -0.889,-0.1905 -0.38735,-0.19685 -0.6096,-0.59055 -0.2159,-0.3937 -0.2159,-0.9779 0,-0.59055 0.19685,-0.9906 0.2032,-0.4064 0.5588,-0.6096 0.36195,-0.20955 0.8382,-0.20955 z m 0.0127,0.5969 q -0.3302,0 -0.52705,0.20955 -0.19685,0.20955 -0.23495,0.60325 h 1.46685 q 0,-0.2413 -0.0762,-0.4191 -0.0762,-0.18415 -0.23495,-0.28575 -0.15875,-0.10795 -0.3937,-0.10795 z m 3.82905,2.5019 q 0,-0.27305 0.1397,-0.381 0.14605,-0.1143 0.34925,-0.1143 0.2032,0 0.3429,0.1143 0.14605,0.10795 0.14605,0.381 0,0.26035 -0.14605,0.37465 -0.1397,0.1143 -0.3429,0.1143 -0.2032,0 -0.34925,-0.1143 -0.1397,-0.1143 -0.1397,-0.37465 z"
       id="text1"
       style="font-weight:600;font-size:24px;line-height:1.8;font-family:'Noto Sans';-inkscape-font-specification:'Noto Sans Semi-Bold';white-space:pre;fill:#ded4d4;fill-opacity:0.992622;fill-rule:evenodd;stroke:#315435;stroke-width:0.529;stroke-linejoin:bevel;stroke-dasharray:0, 5.81901;paint-order:stroke fill markers"
       aria-label="Votre accès à un covoiturage plus vert et abordable ." />
  </g>
</svg>
