<?xml version="1.0" encoding="UTF-8" standalone="no"?>
<svg
   version="1.0"
   width="1015.000000pt"
   height="297.000000pt"
   viewBox="0 0 1015.000000 297.000000"
   preserveAspectRatio="xMidYMid meet"
   id="svg8"
   sodipodi:docname="ecoride.svg"
   inkscape:version="1.4.2 (ebf0e940d0, 2025-05-08)"
   xmlns:inkscape="http://www.inkscape.org/namespaces/inkscape"
   xmlns:sodipodi="http://sodipodi.sourceforge.net/DTD/sodipodi-0.dtd"
   xmlns="http://www.w3.org/2000/svg"
   xmlns:svg="http://www.w3.org/2000/svg"><defs
   id="defs8" />
<sodipodi:namedview
   id="namedview8"
   pagecolor="#ffffff"
   bordercolor="#000000"
   borderopacity="0.25"
   inkscape:showpageshadow="2"
   inkscape:pageopacity="0.0"
   inkscape:pagecheckerboard="0"
   inkscape:deskcolor="#d1d1d1"
   inkscape:document-units="pt"
   inkscape:zoom="0.89852217"
   inkscape:cx="676.66667"
   inkscape:cy="198.10307"
   inkscape:window-width="1920"
   inkscape:window-height="1011"
   inkscape:window-x="0"
   inkscape:window-y="0"
   inkscape:window-maximized="1"
   inkscape:current-layer="svg8" />
<metadata
   id="metadata1">
Created by potrace 1.16, written by Peter Selinger 2001-2019
</metadata>
<g
   transform="translate(0.000000,297.000000) scale(0.100000,-0.100000)"
   fill="#000000"
   stroke="none"
   id="g8"
   style="fill:#3c5d41;fill-opacity:1">
  <path
     d="M6260 2393 c-101 -53 -109 -207 -13 -270 40 -26 142 -25 180 3 82 60 83 197 1 257 -38 28 -123 33 -168 10z"
     id="path1"
     style="fill:#3c5d41;fill-opacity:1" />
  <path
     d="M7922 2083 l4 -318 -61 62 c-52 52 -72 64 -129 82 -119 37 -281 24 -387 -30 -54 -27 -121 -90 -158 -147 -116 -182 -129 -569 -26 -787 83 -175 244 -267 439 -252 111 8 180 39 254 114 35 34 65 63 67 63 2 0 12 -36 21 -80 l17 -80 94 0 93 0 0 845 0 845 -116 0 -116 0 4 -317z m-197 -354 c87 -22 158 -113 183 -234 43 -210 14 -431 -71 -531 -68 -80 -226 -104 -339 -52 -113 53 -162 169 -162 383 0 190 30 291 110 372 65 65 173 89 279 62z"
     id="path2"
     style="fill:#3c5d41;fill-opacity:1" />
  <path
     d="M527 2293 c-4 -3 -7 -361 -7 -795 l0 -788 475 0 475 0 0 105 0 105 -360 0 -360 0 0 255 0 255 340 0 340 0 0 105 0 105 -340 0 -340 0 0 225 0 225 360 0 360 0 0 105 0 105 -468 0 c-258 0 -472 -3 -475 -7z"
     id="path3"
     style="fill:#3c5d41;fill-opacity:1" />
  <path
     d="M4520 1500 l0 -790 115 0 115 0 0 315 0 315 108 0 108 0 180 -312 181 -313 126 -3 c70 -1 127 0 127 2 0 3 -90 156 -200 341 -110 185 -200 340 -200 344 0 4 17 15 38 25 111 53 196 153 227 269 13 49 16 91 13 173 -3 97 -7 116 -35 176 -39 84 -99 142 -188 185 -110 52 -191 63 -471 63 l-244 0 0 -790z m502 579 c145 -31 201 -102 200 -256 0 -65 -5 -92 -25 -136 -47 -103 -120 -137 -314 -144 l-133 -6 0 277 0 276 110 0 c60 0 133 -5 162 -11z"
     id="path4"
     style="fill:#3c5d41;fill-opacity:1" />
  <path
     d="M2251 1914 c-152 -32 -274 -119 -339 -241 -65 -123 -93 -311 -72 -488 38 -322 201 -475 520 -492 114 -6 240 11 340 45 l55 19 3 107 3 107 -30 -15 c-118 -62 -353 -80 -462 -38 -104 41 -167 129 -188 262 -31 193 11 384 102 466 72 65 116 79 252 78 105 0 130 -3 198 -28 43 -15 80 -26 82 -24 9 9 63 173 59 179 -8 14 -118 51 -192 65 -92 17 -247 17 -331 -2z"
     id="path5"
     style="fill:#3c5d41;fill-opacity:1" />
  <path
     d="M3492 1910 c-264 -69 -405 -301 -389 -640 9 -188 54 -313 154 -420 189 -205 580 -212 778 -15 70 71 130 191 151 305 23 118 15 318 -16 415 -76 242 -266 376 -530 374 -41 0 -108 -9 -148 -19z m293 -198 c58 -29 119 -99 143 -164 58 -156 47 -402 -23 -524 -70 -120 -210 -171 -352 -129 -95 28 -171 121 -201 245 -30 126 -22 295 19 405 33 90 112 165 194 186 54 15 176 4 220 -19z"
     id="path6"
     style="fill:#3c5d41;fill-opacity:1" />
  <path
     d="M8880 1919 c-135 -22 -294 -137 -358 -257 -61 -115 -77 -191 -76 -357 0 -134 3 -158 27 -230 33 -100 95 -195 161 -247 182 -145 482 -178 758 -82 l78 27 0 99 c0 54 -3 98 -6 98 -3 0 -44 -14 -91 -30 -243 -86 -462 -72 -583 36 -71 64 -97 122 -114 247 l-5 37 426 0 426 0 -6 118 c-11 199 -56 320 -156 416 -121 115 -284 157 -481 125z m255 -203 c28 -13 62 -36 77 -52 36 -38 68 -112 75 -174 l6 -50 -307 0 c-247 0 -306 3 -306 13 0 24 33 111 56 148 31 49 98 105 148 123 22 8 77 15 121 15 64 1 90 -4 130 -23z"
     id="path7"
     style="fill:#3c5d41;fill-opacity:1" />
  <path
     d="M5854 1897 c-3 -8 -4 -45 -2 -83 l3 -69 155 -13 c85 -7 170 -15 188 -18 l32 -5 0 -402 0 -403 -187 -18 c-104 -9 -198 -20 -210 -23 -21 -5 -23 -11 -23 -79 l0 -74 520 0 520 0 0 74 c0 63 -3 75 -17 80 -10 2 -96 12 -190 22 l-173 18 -2 500 -3 501 -303 3 c-248 2 -303 0 -308 -11z"
     id="path8"
     style="fill:#3c5d41;fill-opacity:1" />
</g>
</svg>
