<?xml version="1.0" encoding="UTF-8" standalone="no"?>
<!-- Uploaded to: SVG Repo, www.svgrepo.com, Generator: SVG Repo Mixer Tools -->

<svg
   fill="#000000"
   width="800"
   height="800"
   viewBox="0 0 50 50"
   version="1.1"
   id="svg1"
   sodipodi:docname="ecoride-logo-2.svg"
   inkscape:version="1.4.2 (ebf0e940d0, 2025-05-08)"
   xmlns:inkscape="http://www.inkscape.org/namespaces/inkscape"
   xmlns:sodipodi="http://sodipodi.sourceforge.net/DTD/sodipodi-0.dtd"
   xmlns="http://www.w3.org/2000/svg"
   xmlns:svg="http://www.w3.org/2000/svg">
  <defs
     id="defs1" />
  <sodipodi:namedview
     id="namedview1"
     pagecolor="#ffffff"
     bordercolor="#000000"
     borderopacity="0.25"
     inkscape:showpageshadow="2"
     inkscape:pageopacity="0.0"
     inkscape:pagecheckerboard="0"
     inkscape:deskcolor="#d1d1d1"
     inkscape:zoom="0.58203125"
     inkscape:cx="25.771812"
     inkscape:cy="474.20134"
     inkscape:window-width="1920"
     inkscape:window-height="1011"
     inkscape:window-x="0"
     inkscape:window-y="0"
     inkscape:window-maximized="1"
     inkscape:current-layer="svg1">
    <inkscape:page
       x="0"
       y="0"
       width="50"
       height="50"
       id="page2"
       margin="0"
       bleed="0" />
  </sodipodi:namedview>
  <circle
     style="fill:#468f4e;fill-opacity:0.992622;fill-rule:evenodd;stroke:#000000;stroke-width:0;paint-order:stroke fill markers"
     id="path3"
     cx="24.966444"
     cy="24.966444"
     r="23.677853" />
  <g
     id="g1"
     transform="matrix(1.7816467,0,0,1.7816467,-17.801855,-28.94064)"
     style="fill:#abd6b0;fill-opacity:0.992622">
    <path
       d="m 24.090407,25.181208 c -1.508087,0 -2.499638,0.107958 -3.125793,0.219237 -0.626155,0.11128 -0.926776,0.247473 -0.926776,0.247473 l 0.0465,-0.01827 c -0.627816,0.212593 -1.627671,0.508231 -2.081094,1.391824 -0.107957,0.209272 -0.272385,0.626155 -0.509893,1.229057 -0.182697,0.465049 -0.403596,1.043039 -0.619511,1.607741 h -1.244006 c -0.632798,0 -1.106152,0.20595 -1.388503,0.526501 -0.284012,0.320552 -0.35543,0.704217 -0.35543,0.999856 0,0.328855 0.172732,0.666016 0.438475,0.830444 0.265742,0.162767 0.558058,0.194324 0.871966,0.194324 h 0.7092 c -0.06644,0.177715 -0.292317,0.773974 -0.292317,0.773974 l -0.02657,0.07142 v 5.107233 c 0,0.699234 0.576329,1.275563 1.275563,1.275563 h 1.70075 c 0.699234,0 1.275563,-0.576329 1.275563,-1.275563 v -0.425187 h 8.50375 v 0.425187 c 0,0.699234 0.576328,1.275563 1.275562,1.275563 h 1.700751 c 0.699234,0 1.275562,-0.576329 1.275562,-1.275563 v -5.108894 l -0.02824,-0.07308 c 0,0 -0.227542,-0.591276 -0.297299,-0.770652 h 0.715843 c 0.313908,0 0.606224,-0.03156 0.871967,-0.194324 0.265742,-0.164428 0.438474,-0.501589 0.438474,-0.830444 0,-0.295639 -0.07142,-0.679304 -0.353769,-0.999856 -0.284012,-0.320551 -0.757365,-0.526501 -1.388503,-0.526501 h -1.263936 c -0.02491,-0.05979 -0.05315,-0.121245 -0.06477,-0.154463 -0.461727,-1.190857 -0.905184,-2.326905 -1.06463,-2.688979 -0.418544,-0.95335 -1.533,-1.235701 -2.082754,-1.391824 l 0.06644,0.02491 c 0,0 -0.300621,-0.136193 -0.926776,-0.247473 -0.62616,-0.11128 -1.61771,-0.219238 -3.125797,-0.219238 z m 0,0.850375 c 1.468225,0 2.41161,0.104636 2.976312,0.20595 0.564702,0.101314 0.710861,0.177716 0.710861,0.177716 l 0.03156,0.01495 0.03488,0.01163 c 0.516537,0.146158 1.348642,0.48664 1.536322,0.915149 0.12955,0.293978 0.584633,1.454939 1.051343,2.655761 h -0.0017 c 0.106297,0.270725 0.277368,0.719165 0.217576,0.98989 -0.02824,0.136193 -0.0764,0.232524 -0.272385,0.343804 -0.174394,0.09633 -0.493284,0.184359 -0.981586,0.20429 -0.308925,-0.730792 -0.91681,-1.300476 -1.675836,-1.551271 0.375361,-0.270724 0.624494,-0.709199 0.624494,-1.204144 0,-0.817157 -0.670999,-1.488156 -1.488156,-1.488156 -0.817158,0 -1.488157,0.670999 -1.488157,1.488156 0,0.494945 0.249134,0.93508 0.626155,1.205805 -0.762348,0.250794 -1.380198,0.82214 -1.687463,1.557914 h -0.426848 c -0.307264,-0.735774 -0.925115,-1.30878 -1.687463,-1.559575 0.375361,-0.270724 0.624494,-0.709199 0.624494,-1.204144 0,-0.817157 -0.670999,-1.488156 -1.488156,-1.488156 -0.817158,0 -1.488157,0.670999 -1.488157,1.488156 0,0.496606 0.250795,0.93508 0.627817,1.207466 -0.758993,0.249133 -1.3702,0.818818 -1.679125,1.547949 -0.488302,-0.01993 -0.807192,-0.107958 -0.981585,-0.20429 -0.195985,-0.11128 -0.244151,-0.207611 -0.272386,-0.343804 -0.05979,-0.270725 0.111279,-0.719165 0.217576,-0.98989 l -0.02159,-0.0083 c 0.194324,-0.50491 0.393631,-1.02809 0.556398,-1.443312 0.235846,-0.59792 0.438474,-1.0829 0.473353,-1.150996 0.237507,-0.458409 0.976603,-0.764013 1.599435,-0.974946 l 0.02325,-0.01 0.02159,-0.01 c 0,0 0.146159,-0.0764 0.710861,-0.177715 0.564702,-0.101305 1.508087,-0.205941 2.976313,-0.205941 z m -2.763719,2.125938 c 0.357091,0 0.637781,0.28069 0.637781,0.637781 0,0.357091 -0.28069,0.637781 -0.637781,0.637781 -0.357091,0 -0.637782,-0.28069 -0.637782,-0.637781 0,-0.357091 0.280691,-0.637781 0.637782,-0.637781 z m 5.527438,0 c 0.357091,0 0.637781,0.28069 0.637781,0.637781 0,0.357091 -0.28069,0.637781 -0.637781,0.637781 -0.357092,0 -0.637782,-0.28069 -0.637782,-0.637781 0,-0.357091 0.28069,-0.637781 0.637782,-0.637781 z m -11.224287,2.551125 h 0.920133 c -0.161106,0.423527 -0.192663,0.506571 -0.322213,0.850375 h -1.031412 c -0.237507,0 -0.386987,-0.04484 -0.426848,-0.0681 -0.0382,-0.02491 -0.03322,0.01163 -0.03322,-0.106297 0,-0.154463 0.03986,-0.322213 0.142837,-0.438475 0.102974,-0.116262 0.287333,-0.237507 0.750721,-0.237507 z m 5.696849,0 c 0.666016,0 1.247327,0.338821 1.58947,0.850375 h -3.175619 c 0.343804,-0.511554 0.920132,-0.850375 1.586149,-0.850375 z m 5.527438,0 c 0.666016,0 1.247327,0.338821 1.58947,0.850375 h -3.17728 c 0.342143,-0.511554 0.921793,-0.850375 1.58781,-0.850375 z m 4.760107,0 h 0.938402 c 0.461727,0 0.646086,0.121245 0.749061,0.237507 0.102975,0.116262 0.142836,0.284012 0.142836,0.438475 0,0.117923 0.005,0.08138 -0.03322,0.106297 -0.03986,0.02325 -0.189341,0.0681 -0.426848,0.0681 h -1.043036 c -0.134532,-0.348791 -0.161106,-0.42187 -0.327195,-0.850379 z m -14.570978,1.097847 c 0.09799,0.104636 0.207612,0.202629 0.345465,0.280691 0.383666,0.215915 0.89688,0.322212 1.599436,0.322212 h 10.204501 c 0.702556,0 1.21577,-0.106297 1.599436,-0.322212 0.132871,-0.07474 0.240829,-0.169411 0.33716,-0.270725 0.249134,0.647746 0.599581,1.554592 0.614529,1.596114 v 3.30849 c 0,0.199307 -0.162767,0.365396 -0.383665,0.365396 H 16.819036 c -0.219237,0 -0.382005,-0.166089 -0.382005,-0.365396 v -3.311812 c 0.01495,-0.03986 0.363735,-0.959994 0.606224,-1.602758 z m 1.094526,1.02809 c -0.699234,0 -1.275562,0.576329 -1.275562,1.275563 0,0.377022 0.156123,0.712521 0.372039,0.943385 0.215916,0.230863 0.473353,0.382004 0.72913,0.524841 0.358752,0.204289 0.602903,0.362074 0.886914,0.479996 0.284013,0.119584 0.594599,0.177716 0.988229,0.177716 0.93342,0 1.70075,-0.76567 1.70075,-1.70075 0,-0.935081 -0.76733,-1.700751 -1.70075,-1.700751 z m 10.204501,0 c -0.933419,0 -1.70075,0.76567 -1.70075,1.700751 0,0.93508 0.767331,1.70075 1.70075,1.70075 0.39363,0 0.704217,-0.05813 0.988229,-0.177716 0.284012,-0.117922 0.528162,-0.275707 0.886914,-0.479996 h 0.0017 c 0.254116,-0.144498 0.511554,-0.293978 0.727469,-0.524841 0.215916,-0.230864 0.37204,-0.566363 0.37204,-0.943385 0,-0.699234 -0.576329,-1.275563 -1.275563,-1.275563 z m -10.204501,0.850375 h 1.70075 c 0.475015,0 0.850375,0.375362 0.850375,0.850376 0,0.475014 -0.37536,0.850375 -0.850375,0.850375 -0.31889,0 -0.473353,-0.03322 -0.659372,-0.11128 -0.187681,-0.07806 -0.421866,-0.222559 -0.797227,-0.435153 -0.239168,-0.136193 -0.425187,-0.257438 -0.528163,-0.367056 -0.101314,-0.109619 -0.141175,-0.184359 -0.141175,-0.362074 0,-0.239168 0.186019,-0.425188 0.425187,-0.425188 z m 10.204501,0 h 1.70075 c 0.239168,0 0.425187,0.18602 0.425187,0.425188 0,0.177715 -0.03986,0.252455 -0.141175,0.362074 -0.102975,0.109618 -0.288995,0.230863 -0.528163,0.367056 -0.37536,0.212594 -0.609546,0.357091 -0.797226,0.435153 -0.18602,0.07806 -0.340483,0.11128 -0.659373,0.11128 -0.475014,0 -0.850375,-0.375361 -0.850375,-0.850375 0,-0.475014 0.375361,-0.850376 0.850375,-0.850376 z m -11.905251,4.18544 c 0.121245,0.03986 0.249134,0.06644 0.382005,0.06644 h 2.16912 v 0.425187 c 0,0.239168 -0.186019,0.425188 -0.425187,0.425188 h -1.70075 c -0.239168,0 -0.425188,-0.18602 -0.425188,-0.425188 z m 15.306751,0 v 0.491623 c 0,0.239168 -0.18602,0.425188 -0.425187,0.425188 h -1.700751 c -0.239168,0 -0.425187,-0.18602 -0.425187,-0.425188 v -0.425187 h 2.16746 c 0.134532,0 0.26242,-0.02657 0.383665,-0.06644 z"
       id="path1"
       style="fill:#abd6b0;fill-opacity:0.992622;stroke-width:0.425188" />
    <path
       d="m 23.717195,24.978817 c -0.623478,-1.362368 -2.376054,-2.848657 -3.390947,-3.094481 -0.240471,-0.06386 -0.463865,0.148138 -0.412678,0.391622 0.03122,0.125348 0.131915,0.221473 0.258584,0.246837 0.455811,0.134049 1.207262,0.636634 1.859288,1.279545 -0.659719,0.498943 -1.583692,0.649601 -2.290593,0.353558 -1.238445,-0.505621 -1.7056,-2.220527 -2.021086,-3.633114 l 1.28198,-0.04415 c 1.117758,-0.07897 2.082432,-0.141143 2.666015,0.359822 0.52788,0.453147 0.569653,0.825441 0.602043,1.306016 -0.05432,0.374647 0.210862,0.96147 0.61178,0.52686 0.02776,-0.03977 0.04146,-0.09933 0.06666,-0.156481 -0.0015,-0.08801 0.0081,-0.164652 0.0023,-0.252734 -0.04596,-0.703866 -0.241861,-1.39909 -0.842605,-1.913086 -0.675921,-0.578317 -1.932185,-0.61537 -3.149569,-0.54733 -0.543477,0.04612 -1.089256,0.05918 -1.634316,0.03909 l -0.215857,-0.02369 c -0.116359,-0.02561 -0.214839,0.08786 -0.17313,0.199456 l 0.04454,0.206543 c 0.343431,1.617306 0.822332,3.837633 2.492694,4.541898 0.236435,0.09245 0.483962,0.153502 0.736262,0.181634 0.816097,0.08257 1.633304,-0.145791 2.288365,-0.639478 0.242309,0.294413 0.449506,0.616046 0.617402,0.958396 0.04437,0.109793 0.14617,0.185753 0.264051,0.197024 0.07703,0.0097 0.155145,-0.0053 0.223147,-0.04273 0.141848,-0.0985 0.190898,-0.285601 0.115626,-0.441028 z"
       id="path1-6"
       style="fill:#abd6b0;fill-opacity:0.992622;stroke-width:0.126257;stroke-dasharray:none"
       sodipodi:nodetypes="ccccccccssscsscccccccccccc" />
    <path
       style="baseline-shift:baseline;display:inline;overflow:visible;fill:#abd6b0;fill-opacity:0.992622;stroke-width:0;stroke-linecap:round;stroke-linejoin:round;stroke-dasharray:none;enable-background:accumulate;stop-color:#000000"
       d="m 30.498954,20.119068 c -2.113114,-0.762844 -3.460653,-0.656438 -4.354555,-0.05214 -0.893903,0.604297 -1.267163,1.625429 -1.610692,2.524946 l -0.369227,0.966808 a 0.30091327,0.30091327 0 0 0 0.173614,0.388154 0.30091327,0.30091327 0 0 0 0.388154,-0.173613 l 0.369227,-0.966808 c 0.343528,-0.899518 0.694219,-1.773231 1.385879,-2.240809 0.685372,-0.463326 1.777427,-0.602281 3.764142,0.105235 -0.228799,0.563824 -0.61593,1.366285 -1.24415,1.895192 -0.644247,0.542399 -1.505985,0.835053 -2.870975,0.313759 a 0.30091327,0.30091327 0 0 0 -0.388155,0.173614 0.30091327,0.30091327 0 0 0 0.173614,0.388154 c 1.524435,0.582187 2.693205,0.241888 3.473211,-0.41481 0.780005,-0.656696 1.200379,-1.585151 1.438809,-2.181107 0.116447,-0.290931 -0.03944,-0.622079 -0.328896,-0.726575 z"
       id="path1-1" />
    <path
       style="baseline-shift:baseline;display:inline;overflow:visible;vector-effect:none;fill:#abd6b0;fill-opacity:0.992622;stroke-width:0.601827;stroke-linecap:round;stroke-linejoin:round;stroke-dasharray:none;enable-background:accumulate;stop-color:#000000"
       d="m 27.521766,21.481246 c -1.0849,-0.266015 -1.847026,-0.0067 -2.304309,0.344093 -0.457282,0.350765 -0.627952,0.794434 -0.627952,0.794434 a 0.30091327,0.30091327 0 0 0 0.173613,0.388153 0.30091327,0.30091327 0 0 0 0.388155,-0.173613 c 0,0 0.106246,-0.281436 0.432368,-0.53159 0.326118,-0.250153 0.853873,-0.467539 1.794894,-0.236803 a 0.30091327,0.30091327 0 0 0 0.363953,-0.220721 0.30091327,0.30091327 0 0 0 -0.220722,-0.363953 z"
       id="path2" />
  </g>
</svg>
