<?xml version="1.0" encoding="UTF-8" standalone="no"?>
<svg
   id="Outline"
   viewBox="0 0 24 24"
   width="48"
   height="48"
   version="1.1"
   sodipodi:docname="home.svg"
   inkscape:version="1.4.2 (ebf0e940d0, 2025-05-08)"
   inkscape:export-filename="home.svg"
   inkscape:export-xdpi="96"
   inkscape:export-ydpi="96"
   xmlns:inkscape="http://www.inkscape.org/namespaces/inkscape"
   xmlns:sodipodi="http://sodipodi.sourceforge.net/DTD/sodipodi-0.dtd"
   xmlns="http://www.w3.org/2000/svg"
   xmlns:svg="http://www.w3.org/2000/svg">
  <sodipodi:namedview
     id="namedview1"
     pagecolor="#ffffff"
     bordercolor="#000000"
     borderopacity="0.25"
     inkscape:showpageshadow="2"
     inkscape:pageopacity="0.0"
     inkscape:pagecheckerboard="0"
     inkscape:deskcolor="#d1d1d1"
     inkscape:zoom="1.5625"
     inkscape:cx="-0.64"
     inkscape:cy="1.28"
     inkscape:window-width="1920"
     inkscape:window-height="1011"
     inkscape:window-x="0"
     inkscape:window-y="0"
     inkscape:window-maximized="1"
     inkscape:current-layer="Outline" />
  <defs
     id="defs1" />
  <path
     d="M 23.121,9.069 15.536,1.483 a 5.008,5.008 0 0 0 -7.072,0 L 0.879,9.069 A 2.978,2.978 0 0 0 0,11.19 v 9.817 a 3,3 0 0 0 3,3 h 18 a 3,3 0 0 0 3,-3 V 11.19 A 2.978,2.978 0 0 0 23.121,9.069 Z M 15,22.007 H 9 v -3.934 a 3,3 0 0 1 6,0 z m 7,-1 a 1,1 0 0 1 -1,1 h -4 v -3.934 a 5,5 0 0 0 -10,0 v 3.934 H 3 a 1,1 0 0 1 -1,-1 V 11.19 A 1.008,1.008 0 0 1 2.293,10.483 L 9.878,2.9 a 3.008,3.008 0 0 1 4.244,0 l 7.585,7.586 A 1.008,1.008 0 0 1 22,11.19 Z"
     id="path1" />
</svg>
