<?xml version="1.0" encoding="UTF-8" standalone="no"?>
<!-- Uploaded to: SVG Repo, www.svgrepo.com, Generator: SVG Repo Mixer Tools -->

<svg
   fill="#000000"
   width="228"
   height="50"
   viewBox="0 0 228 50"
   version="1.1"
   id="svg1"
   xml:space="preserve"
   sodipodi:docname="logo2.svg"
   inkscape:version="1.4.2 (ebf0e940d0, 2025-05-08)"
   xmlns:inkscape="http://www.inkscape.org/namespaces/inkscape"
   xmlns:sodipodi="http://sodipodi.sourceforge.net/DTD/sodipodi-0.dtd"
   xmlns="http://www.w3.org/2000/svg"
   xmlns:svg="http://www.w3.org/2000/svg"><sodipodi:namedview
     id="namedview1"
     pagecolor="#ffffff"
     bordercolor="#000000"
     borderopacity="0.25"
     inkscape:showpageshadow="2"
     inkscape:pageopacity="0.0"
     inkscape:pagecheckerboard="0"
     inkscape:deskcolor="#d1d1d1"
     inkscape:zoom="3.4977496"
     inkscape:cx="130.94134"
     inkscape:cy="24.873136"
     inkscape:window-width="1920"
     inkscape:window-height="1011"
     inkscape:window-x="0"
     inkscape:window-y="0"
     inkscape:window-maximized="1"
     inkscape:current-layer="svg1" /><defs
     id="defs1" /><circle
     style="fill:#3c5d41;fill-opacity:1;fill-rule:evenodd;stroke:#000000;stroke-width:0;paint-order:stroke fill markers"
     id="path3"
     cx="82.851196"
     cy="27.476528"
     r="16.677017" /><g
     id="g2"
     transform="matrix(1.3071662,0,0,1.3071662,51.469809,-12.273763)"
     style="fill:#dae5cd;fill-opacity:0.992622"><path
       d="m 24.090407,25.181208 c -1.508087,0 -2.499638,0.107958 -3.125793,0.219237 -0.626155,0.11128 -0.926776,0.247473 -0.926776,0.247473 l 0.0465,-0.01827 c -0.627816,0.212593 -1.627671,0.508231 -2.081094,1.391824 -0.107957,0.209272 -0.272385,0.626155 -0.509893,1.229057 -0.182697,0.465049 -0.403596,1.043039 -0.619511,1.607741 h -1.244006 c -0.632798,0 -1.106152,0.20595 -1.388503,0.526501 -0.284012,0.320552 -0.35543,0.704217 -0.35543,0.999856 0,0.328855 0.172732,0.666016 0.438475,0.830444 0.265742,0.162767 0.558058,0.194324 0.871966,0.194324 h 0.7092 c -0.06644,0.177715 -0.292317,0.773974 -0.292317,0.773974 l -0.02657,0.07142 v 5.107233 c 0,0.699234 0.576329,1.275563 1.275563,1.275563 h 1.70075 c 0.699234,0 1.275563,-0.576329 1.275563,-1.275563 v -0.425187 h 8.50375 v 0.425187 c 0,0.699234 0.576328,1.275563 1.275562,1.275563 h 1.700751 c 0.699234,0 1.275562,-0.576329 1.275562,-1.275563 v -5.108894 l -0.02824,-0.07308 c 0,0 -0.227542,-0.591276 -0.297299,-0.770652 h 0.715843 c 0.313908,0 0.606224,-0.03156 0.871967,-0.194324 0.265742,-0.164428 0.438474,-0.501589 0.438474,-0.830444 0,-0.295639 -0.07142,-0.679304 -0.353769,-0.999856 -0.284012,-0.320551 -0.757365,-0.526501 -1.388503,-0.526501 h -1.263936 c -0.02491,-0.05979 -0.05315,-0.121245 -0.06477,-0.154463 -0.461727,-1.190857 -0.905184,-2.326905 -1.06463,-2.688979 -0.418544,-0.95335 -1.533,-1.235701 -2.082754,-1.391824 l 0.06644,0.02491 c 0,0 -0.300621,-0.136193 -0.926776,-0.247473 -0.62616,-0.11128 -1.61771,-0.219238 -3.125797,-0.219238 z m 0,0.850375 c 1.468225,0 2.41161,0.104636 2.976312,0.20595 0.564702,0.101314 0.710861,0.177716 0.710861,0.177716 l 0.03156,0.01495 0.03488,0.01163 c 0.516537,0.146158 1.348642,0.48664 1.536322,0.915149 0.12955,0.293978 0.584633,1.454939 1.051343,2.655761 h -0.0017 c 0.106297,0.270725 0.277368,0.719165 0.217576,0.98989 -0.02824,0.136193 -0.0764,0.232524 -0.272385,0.343804 -0.174394,0.09633 -0.493284,0.184359 -0.981586,0.20429 -0.308925,-0.730792 -0.91681,-1.300476 -1.675836,-1.551271 0.375361,-0.270724 0.624494,-0.709199 0.624494,-1.204144 0,-0.817157 -0.670999,-1.488156 -1.488156,-1.488156 -0.817158,0 -1.488157,0.670999 -1.488157,1.488156 0,0.494945 0.249134,0.93508 0.626155,1.205805 -0.762348,0.250794 -1.380198,0.82214 -1.687463,1.557914 h -0.426848 c -0.307264,-0.735774 -0.925115,-1.30878 -1.687463,-1.559575 0.375361,-0.270724 0.624494,-0.709199 0.624494,-1.204144 0,-0.817157 -0.670999,-1.488156 -1.488156,-1.488156 -0.817158,0 -1.488157,0.670999 -1.488157,1.488156 0,0.496606 0.250795,0.93508 0.627817,1.207466 -0.758993,0.249133 -1.3702,0.818818 -1.679125,1.547949 -0.488302,-0.01993 -0.807192,-0.107958 -0.981585,-0.20429 -0.195985,-0.11128 -0.244151,-0.207611 -0.272386,-0.343804 -0.05979,-0.270725 0.111279,-0.719165 0.217576,-0.98989 l -0.02159,-0.0083 c 0.194324,-0.50491 0.393631,-1.02809 0.556398,-1.443312 0.235846,-0.59792 0.438474,-1.0829 0.473353,-1.150996 0.237507,-0.458409 0.976603,-0.764013 1.599435,-0.974946 l 0.02325,-0.01 0.02159,-0.01 c 0,0 0.146159,-0.0764 0.710861,-0.177715 0.564702,-0.101305 1.508087,-0.205941 2.976313,-0.205941 z m -2.763719,2.125938 c 0.357091,0 0.637781,0.28069 0.637781,0.637781 0,0.357091 -0.28069,0.637781 -0.637781,0.637781 -0.357091,0 -0.637782,-0.28069 -0.637782,-0.637781 0,-0.357091 0.280691,-0.637781 0.637782,-0.637781 z m 5.527438,0 c 0.357091,0 0.637781,0.28069 0.637781,0.637781 0,0.357091 -0.28069,0.637781 -0.637781,0.637781 -0.357092,0 -0.637782,-0.28069 -0.637782,-0.637781 0,-0.357091 0.28069,-0.637781 0.637782,-0.637781 z m -11.224287,2.551125 h 0.920133 c -0.161106,0.423527 -0.192663,0.506571 -0.322213,0.850375 h -1.031412 c -0.237507,0 -0.386987,-0.04484 -0.426848,-0.0681 -0.0382,-0.02491 -0.03322,0.01163 -0.03322,-0.106297 0,-0.154463 0.03986,-0.322213 0.142837,-0.438475 0.102974,-0.116262 0.287333,-0.237507 0.750721,-0.237507 z m 5.696849,0 c 0.666016,0 1.247327,0.338821 1.58947,0.850375 h -3.175619 c 0.343804,-0.511554 0.920132,-0.850375 1.586149,-0.850375 z m 5.527438,0 c 0.666016,0 1.247327,0.338821 1.58947,0.850375 h -3.17728 c 0.342143,-0.511554 0.921793,-0.850375 1.58781,-0.850375 z m 4.760107,0 h 0.938402 c 0.461727,0 0.646086,0.121245 0.749061,0.237507 0.102975,0.116262 0.142836,0.284012 0.142836,0.438475 0,0.117923 0.005,0.08138 -0.03322,0.106297 -0.03986,0.02325 -0.189341,0.0681 -0.426848,0.0681 h -1.043036 c -0.134532,-0.348791 -0.161106,-0.42187 -0.327195,-0.850379 z m -14.570978,1.097847 c 0.09799,0.104636 0.207612,0.202629 0.345465,0.280691 0.383666,0.215915 0.89688,0.322212 1.599436,0.322212 h 10.204501 c 0.702556,0 1.21577,-0.106297 1.599436,-0.322212 0.132871,-0.07474 0.240829,-0.169411 0.33716,-0.270725 0.249134,0.647746 0.599581,1.554592 0.614529,1.596114 v 3.30849 c 0,0.199307 -0.162767,0.365396 -0.383665,0.365396 H 16.819036 c -0.219237,0 -0.382005,-0.166089 -0.382005,-0.365396 v -3.311812 c 0.01495,-0.03986 0.363735,-0.959994 0.606224,-1.602758 z m 1.094526,1.02809 c -0.699234,0 -1.275562,0.576329 -1.275562,1.275563 0,0.377022 0.156123,0.712521 0.372039,0.943385 0.215916,0.230863 0.473353,0.382004 0.72913,0.524841 0.358752,0.204289 0.602903,0.362074 0.886914,0.479996 0.284013,0.119584 0.594599,0.177716 0.988229,0.177716 0.93342,0 1.70075,-0.76567 1.70075,-1.70075 0,-0.935081 -0.76733,-1.700751 -1.70075,-1.700751 z m 10.204501,0 c -0.933419,0 -1.70075,0.76567 -1.70075,1.700751 0,0.93508 0.767331,1.70075 1.70075,1.70075 0.39363,0 0.704217,-0.05813 0.988229,-0.177716 0.284012,-0.117922 0.528162,-0.275707 0.886914,-0.479996 h 0.0017 c 0.254116,-0.144498 0.511554,-0.293978 0.727469,-0.524841 0.215916,-0.230864 0.37204,-0.566363 0.37204,-0.943385 0,-0.699234 -0.576329,-1.275563 -1.275563,-1.275563 z m -10.204501,0.850375 h 1.70075 c 0.475015,0 0.850375,0.375362 0.850375,0.850376 0,0.475014 -0.37536,0.850375 -0.850375,0.850375 -0.31889,0 -0.473353,-0.03322 -0.659372,-0.11128 -0.187681,-0.07806 -0.421866,-0.222559 -0.797227,-0.435153 -0.239168,-0.136193 -0.425187,-0.257438 -0.528163,-0.367056 -0.101314,-0.109619 -0.141175,-0.184359 -0.141175,-0.362074 0,-0.239168 0.186019,-0.425188 0.425187,-0.425188 z m 10.204501,0 h 1.70075 c 0.239168,0 0.425187,0.18602 0.425187,0.425188 0,0.177715 -0.03986,0.252455 -0.141175,0.362074 -0.102975,0.109618 -0.288995,0.230863 -0.528163,0.367056 -0.37536,0.212594 -0.609546,0.357091 -0.797226,0.435153 -0.18602,0.07806 -0.340483,0.11128 -0.659373,0.11128 -0.475014,0 -0.850375,-0.375361 -0.850375,-0.850375 0,-0.475014 0.375361,-0.850376 0.850375,-0.850376 z m -11.905251,4.18544 c 0.121245,0.03986 0.249134,0.06644 0.382005,0.06644 h 2.16912 v 0.425187 c 0,0.239168 -0.186019,0.425188 -0.425187,0.425188 h -1.70075 c -0.239168,0 -0.425188,-0.18602 -0.425188,-0.425188 z m 15.306751,0 v 0.491623 c 0,0.239168 -0.18602,0.425188 -0.425187,0.425188 h -1.700751 c -0.239168,0 -0.425187,-0.18602 -0.425187,-0.425188 v -0.425187 h 2.16746 c 0.134532,0 0.26242,-0.02657 0.383665,-0.06644 z"
       id="path1"
       style="fill:#dae5cd;fill-opacity:0.992622;stroke-width:0.425188" /><path
       d="m 23.717195,24.978817 c -0.623478,-1.362368 -2.376054,-2.848657 -3.390947,-3.094481 -0.240471,-0.06386 -0.463865,0.148138 -0.412678,0.391622 0.03122,0.125348 0.131915,0.221473 0.258584,0.246837 0.455811,0.134049 1.207262,0.636634 1.859288,1.279545 -0.659719,0.498943 -1.583692,0.649601 -2.290593,0.353558 -1.238445,-0.505621 -1.7056,-2.220527 -2.021086,-3.633114 l 1.28198,-0.04415 c 1.117758,-0.07897 2.082432,-0.141143 2.666015,0.359822 0.52788,0.453147 0.569653,0.825441 0.602043,1.306016 -0.05432,0.374647 0.210862,0.96147 0.61178,0.52686 0.02776,-0.03977 0.04146,-0.09933 0.06666,-0.156481 -0.0015,-0.08801 0.0081,-0.164652 0.0023,-0.252734 -0.04596,-0.703866 -0.241861,-1.39909 -0.842605,-1.913086 -0.675921,-0.578317 -1.932185,-0.61537 -3.149569,-0.54733 -0.543477,0.04612 -1.089256,0.05918 -1.634316,0.03909 l -0.215857,-0.02369 c -0.116359,-0.02561 -0.214839,0.08786 -0.17313,0.199456 l 0.04454,0.206543 c 0.343431,1.617306 0.822332,3.837633 2.492694,4.541898 0.236435,0.09245 0.483962,0.153502 0.736262,0.181634 0.816097,0.08257 1.633304,-0.145791 2.288365,-0.639478 0.242309,0.294413 0.449506,0.616046 0.617402,0.958396 0.04437,0.109793 0.14617,0.185753 0.264051,0.197024 0.07703,0.0097 0.155145,-0.0053 0.223147,-0.04273 0.141848,-0.0985 0.190898,-0.285601 0.115626,-0.441028 z"
       id="path1-6"
       style="fill:#dae5cd;fill-opacity:0.992622;stroke-width:0.126257;stroke-dasharray:none" /><path
       style="baseline-shift:baseline;display:inline;overflow:visible;fill:#dae5cd;fill-opacity:0.992622;stroke-width:0;stroke-linecap:round;stroke-linejoin:round;stroke-dasharray:none;enable-background:accumulate;stop-color:#000000"
       d="m 30.498954,20.119068 c -2.113114,-0.762844 -3.460653,-0.656438 -4.354555,-0.05214 -0.893903,0.604297 -1.267163,1.625429 -1.610692,2.524946 l -0.369227,0.966808 c -0.0591,0.155124 0.01859,0.328805 0.173614,0.388154 0.155124,0.0591 0.328805,-0.01859 0.388154,-0.173613 l 0.369227,-0.966808 c 0.343528,-0.899518 0.694219,-1.773231 1.385879,-2.240809 0.685372,-0.463326 1.777427,-0.602281 3.764142,0.105235 -0.228799,0.563824 -0.61593,1.366285 -1.24415,1.895192 -0.644247,0.542399 -1.505985,0.835053 -2.870975,0.313759 -0.155124,-0.0591 -0.328806,0.01859 -0.388155,0.173614 -0.0591,0.155124 0.01859,0.328805 0.173614,0.388154 1.524435,0.582187 2.693205,0.241888 3.473211,-0.41481 0.780005,-0.656696 1.200379,-1.585151 1.438809,-2.181107 0.116447,-0.290931 -0.03944,-0.622079 -0.328896,-0.726575 z"
       id="path1-1" /><path
       style="baseline-shift:baseline;display:inline;overflow:visible;vector-effect:none;fill:#dae5cd;fill-opacity:0.992622;stroke-width:0.601827;stroke-linecap:round;stroke-linejoin:round;stroke-dasharray:none;enable-background:accumulate;stop-color:#000000"
       d="m 27.521766,21.481246 c -1.0849,-0.266015 -1.847026,-0.0067 -2.304309,0.344093 -0.457282,0.350765 -0.627952,0.794434 -0.627952,0.794434 a 0.30091327,0.30091327 0 0 0 0.173613,0.388153 0.30091327,0.30091327 0 0 0 0.388155,-0.173613 c 0,0 0.106246,-0.281436 0.432368,-0.53159 0.326118,-0.250153 0.853873,-0.467539 1.794894,-0.236803 a 0.30091327,0.30091327 0 0 0 0.363953,-0.220721 0.30091327,0.30091327 0 0 0 -0.220722,-0.363953 z"
       id="path2" /></g><path
     d="m 144.61804,6.3461077 c -2.21079,1.1601202 -2.3859,4.5310353 -0.28456,5.9100463 0.87557,0.569115 3.10825,0.547226 3.94004,-0.06567 1.7949,-1.313343 1.81679,-4.3121441 0.0219,-5.6254877 -0.83178,-0.6128937 -2.69235,-0.722339 -3.67736,-0.2188906 z"
     id="path1-3"
     style="fill:#3c5d41;fill-opacity:1;stroke:none;stroke-width:0.0218891" /><path
     d="m 180.99766,13.131716 0.0876,6.960721 -1.33524,-1.357122 c -1.13823,-1.138231 -1.57601,-1.400899 -2.82368,-1.794903 -2.6048,-0.809895 -6.15083,-0.525337 -8.47107,0.656672 -1.18201,0.591005 -2.64858,1.970016 -3.45847,3.217692 -2.53913,3.983809 -2.82369,12.454875 -0.56912,17.22669 1.81679,3.830586 5.34093,5.844379 9.6093,5.516043 2.42968,-0.175112 3.94003,-0.853673 5.55982,-2.495352 0.76612,-0.744228 1.42279,-1.379011 1.46657,-1.379011 0.0438,0 0.26267,0.788006 0.45967,1.751125 l 0.37211,1.751124 h 2.05757 2.03569 V 24.68914 6.1928843 h -2.53913 -2.53914 z m -4.31214,7.748727 c 1.90434,0.48156 3.45847,2.473464 4.00569,5.12204 0.94123,4.596703 0.30645,9.434185 -1.55412,11.623091 -1.48846,1.751125 -4.94693,2.276462 -7.42039,1.138231 -2.47346,-1.16012 -3.54603,-3.699251 -3.54603,-8.38351 0,-4.158921 0.65667,-6.369716 2.4078,-8.14273 1.42279,-1.422789 3.78681,-1.948126 6.10705,-1.357122 z"
     id="path2-6"
     style="fill:#3c5d41;fill-opacity:1;stroke:none;stroke-width:0.0218891" /><path
     d="m 10.551119,7.1055232 c -0.08756,0.065667 -0.153224,7.9019508 -0.153224,17.4018028 v 17.248579 h 10.397304 10.397303 v -2.298351 -2.298351 h -7.880061 -7.880062 v -5.58171 -5.581711 h 7.44228 7.442281 V 23.697431 21.39908 h -7.442281 -7.44228 v -4.925039 -4.925038 h 7.880062 7.880061 V 9.2506514 6.9522998 h -10.24408 c -5.647377,0 -10.331636,0.065667 -10.397303,0.1532234 z"
     id="path3-7"
     style="fill:#3c5d41;fill-opacity:1;stroke:none;stroke-width:0.0218891" /><path
     d="m 106.53108,25.893038 v 17.292357 h 2.51724 2.51724 v -6.895053 -6.895054 h 2.36402 2.36402 l 3.94003,6.829386 3.96192,6.851276 2.75802,0.06567 c 1.53224,0.02189 2.77991,0 2.77991,-0.04378 0,-0.06567 -1.97001,-3.414693 -4.37781,-7.464169 -2.4078,-4.049476 -4.37781,-7.442281 -4.37781,-7.529837 0,-0.08756 0.37211,-0.328336 0.83178,-0.547226 2.42969,-1.160121 4.29026,-3.349027 4.96882,-5.888158 0.28456,-1.072564 0.35022,-1.991904 0.28456,-3.786807 -0.0657,-2.123239 -0.15323,-2.539131 -0.76612,-3.852475 -0.85367,-1.838681 -2.16702,-3.108246 -4.11514,-4.0494751 -2.4078,-1.1382313 -4.18081,-1.379011 -10.30975,-1.379011 h -5.34093 z m 10.98831,-12.673766 c 3.17391,0.678561 4.3997,2.232684 4.37781,5.6036 0,1.422789 -0.10945,2.013793 -0.54723,2.976912 -1.02878,2.254573 -2.62669,2.998801 -6.87316,3.152024 l -2.91125,0.131335 v -6.06327 -6.04138 h 2.4078 c 1.31334,0 2.91124,0.109445 3.54603,0.240779 z"
     id="path4"
     style="fill:#3c5d41;fill-opacity:1;stroke:none;stroke-width:0.0218891" /><path
     d="m 48.287859,15.401477 c -3.32714,0.70045 -5.997603,2.604798 -7.420392,5.275264 -1.422789,2.692354 -2.035683,6.807497 -1.576013,10.681861 0.831785,7.048277 4.399705,10.397303 11.382315,10.769417 2.49535,0.131335 5.25337,-0.240779 7.44228,-0.985007 l 1.2039,-0.415892 0.0657,-2.34213 0.0657,-2.342129 -0.65667,0.328336 c -2.58291,1.357121 -7.72684,1.751124 -10.11275,0.831784 -2.27646,-0.897452 -3.65547,-2.823689 -4.11514,-5.734934 -0.67856,-4.224588 0.24078,-8.405399 2.23268,-10.200302 1.57602,-1.422789 2.53914,-1.729235 5.51605,-1.707346 2.29835,0 2.84558,0.06567 4.33403,0.612893 0.94123,0.328336 1.75113,0.569116 1.7949,0.525338 0.19701,-0.197002 1.37902,-3.786808 1.29146,-3.918142 -0.17511,-0.306447 -2.58291,-1.116342 -4.2027,-1.422789 -2.01379,-0.372114 -5.4066,-0.372114 -7.24528,0.04378 z"
     id="path5"
     style="fill:#3c5d41;fill-opacity:1;stroke:none;stroke-width:0.0218891" /><path
     d="m 201.96738,16.721522 c -2.95502,0.481559 -6.43538,2.998801 -7.83628,5.625488 -1.33524,2.517242 -1.68546,4.180811 -1.66357,7.814395 0,2.933134 0.0657,3.458471 0.591,5.034483 0.72234,2.188907 2.07946,4.268367 3.52414,5.406598 3.98381,3.173914 10.55053,3.896253 16.59191,1.794903 l 1.70735,-0.591004 v -2.167017 c 0,-1.18201 -0.0657,-2.145128 -0.13134,-2.145128 -0.0657,0 -0.96312,0.306447 -1.9919,0.656672 -5.31905,1.882459 -10.11275,1.576012 -12.76133,-0.788007 -1.55412,-1.400899 -2.12323,-2.670465 -2.49535,-5.406597 l -0.10944,-0.809896 h 9.32474 9.32474 l -0.13134,-2.582909 c -0.24078,-4.355923 -1.22579,-7.004499 -3.41469,-9.105849 -2.64858,-2.517242 -6.2165,-3.436582 -10.52864,-2.736132 z m 5.58171,4.443479 c 0.61289,0.284558 1.35712,0.788006 1.68546,1.138231 0.788,0.831784 1.48845,2.451575 1.64168,3.808697 l 0.13133,1.094453 h -6.71994 c -5.4066,0 -6.69805,-0.06567 -6.69805,-0.284558 0,-0.525338 0.72234,-2.429686 1.22579,-3.239581 0.67856,-1.072564 2.14512,-2.298351 3.23958,-2.692354 0.48156,-0.175113 1.68545,-0.328336 2.64857,-0.328336 1.4009,-0.02189 1.97002,0.08756 2.84558,0.503448 z"
     id="path7"
     style="fill:#3c5d41;fill-opacity:1;stroke:none;stroke-width:0.0218891" /><path
     d="m 135.73108,17.203081 c -0.0657,0.175113 -0.0875,0.985008 -0.0438,1.816792 l 0.0657,1.510345 3.39281,0.284558 c 1.86057,0.153224 3.72114,0.328336 4.11514,0.394003 l 0.70045,0.109445 v 8.799403 8.821291 l -4.09325,0.394003 c -2.27647,0.197001 -4.33404,0.437781 -4.59671,0.503448 -0.45967,0.109446 -0.50344,0.24078 -0.50344,1.729236 v 1.61979 h 11.38231 11.38231 v -1.61979 c 0,-1.379011 -0.0657,-1.64168 -0.37212,-1.751125 -0.21889,-0.04378 -2.10135,-0.262669 -4.15892,-0.481559 l -3.7868,-0.394003 -0.0438,-10.94453 -0.0657,-10.966419 -6.63239,-0.06567 c -5.42848,-0.04378 -6.63238,0 -6.74183,0.240779 z"
     id="path8"
     style="fill:#3c5d41;fill-opacity:1;stroke:none;stroke-width:0.0218891" /></svg>
